<svg xmlns="http://www.w3.org/2000/svg" viewBox="-262.5 32.2 1280 1280" width="512" height="512">
  <path fill="#2c8ffa" fill-rule="evenodd" d="M 54.4375 462.796875 L 482.953125 115.503906 C 544.066406 66.308594 633.492188 75.253906 682.683594 136.371094 C 731.867188 197.472656 722.1875 286.917969 661.074219 336.101562 L 232.566406 682.648438 C 188.59375 718.417969 164.746094 770.585938 163.261719 822.757812 L 33.589844 662.519531 L 32.835938 661.773438 C -16.351562 601.414062 -6.660156 511.972656 54.445312 462.785156 Z"/>
  <path fill="#2c8ffa" fill-rule="evenodd" d="M 463.570312 968.089844 C 523.929688 918.894531 613.363281 928.585938 662.546875 989.691406 C 711.738281 1050.058594 702.792969 1139.492188 641.679688 1188.675781 C 580.566406 1237.859375 491.144531 1228.925781 441.949219 1167.808594 C 392.765625 1106.695312 402.445312 1017.273438 463.5625 968.078125 Z"/>
  <path fill="#2c8ffa" fill-rule="evenodd" d="M 482.953125 538.070312 C 544.066406 488.128906 632.746094 497.820312 681.9375 558.933594 C 731.867188 619.304688 722.175781 708.734375 661.074219 757.921875 L 438.992188 938.277344 C 394.277344 974.050781 371.171875 1026.964844 371.917969 1080.617188 L 240.019531 917.402344 L 239.261719 917.402344 C 190.078125 856.289062 199.769531 766.855469 260.136719 717.671875 L 260.882812 717.671875 L 482.964844 538.070312 Z"/>
</svg>
