<svg xmlns="http://www.w3.org/2000/svg" xmlns:xlink="http://www.w3.org/1999/xlink" width="7937" zoomAndPan="magnify" viewBox="0 0 5952.75 1984.499941" height="2646" preserveAspectRatio="xMidYMid meet" version="1.0"><defs><g/><clipPath id="27823a86d1"><path d="M 781 0.460938 L 2953 0.460938 L 2953 1433.378906 L 781 1433.378906 Z M 781 0.460938 " clip-rule="nonzero"/></clipPath><clipPath id="17b2c63111"><rect x="0" width="2172" y="0" height="1434"/></clipPath><clipPath id="c8c404405a"><path d="M 2921 113 L 5919.25 113 L 5919.25 1414 L 2921 1414 Z M 2921 113 " clip-rule="nonzero"/></clipPath><clipPath id="acfdaafca1"><rect x="0" width="2999" y="0" height="1301"/></clipPath><clipPath id="8107dc5cc4"><rect x="0" width="5920" y="0" height="1434"/></clipPath></defs><g transform="matrix(1, 0, 0, 1, 17, 400)"><g clip-path="url(#8107dc5cc4)"><path fill="#2c8ffa" d="M 54.4375 462.796875 L 482.953125 115.503906 C 544.066406 66.308594 633.492188 75.253906 682.683594 136.371094 C 731.867188 197.472656 722.1875 286.917969 661.074219 336.101562 L 232.566406 682.648438 C 188.59375 718.417969 164.746094 770.585938 163.261719 822.757812 L 33.589844 662.519531 L 32.835938 661.773438 C -16.351562 601.414062 -6.660156 511.972656 54.445312 462.785156 Z M 54.4375 462.796875 " fill-opacity="1" fill-rule="evenodd"/><path fill="#2c8ffa" d="M 463.570312 968.089844 C 523.929688 918.894531 613.363281 928.585938 662.546875 989.691406 C 711.738281 1050.058594 702.792969 1139.492188 641.679688 1188.675781 C 580.566406 1237.859375 491.144531 1228.925781 441.949219 1167.808594 C 392.765625 1106.695312 402.445312 1017.273438 463.5625 968.078125 Z M 463.570312 968.089844 " fill-opacity="1" fill-rule="evenodd"/><path fill="#2c8ffa" d="M 482.953125 538.070312 C 544.066406 488.128906 632.746094 497.820312 681.9375 558.933594 C 731.867188 619.304688 722.175781 708.734375 661.074219 757.921875 L 438.992188 938.277344 C 394.277344 974.050781 371.171875 1026.964844 371.917969 1080.617188 L 240.019531 917.402344 L 239.261719 917.402344 C 190.078125 856.289062 199.769531 766.855469 260.136719 717.671875 L 260.882812 717.671875 L 482.964844 538.070312 Z M 482.953125 538.070312 " fill-opacity="1" fill-rule="evenodd"/><g clip-path="url(#27823a86d1)"><g transform="matrix(1, 0, 0, 1, 781, 0)"><g clip-path="url(#17b2c63111)"><g fill="#2c8ffa" fill-opacity="1"><g transform="translate(0.523415, 990.134652)"><g><path d="M 515.515625 -179.0625 C 515.515625 -143.644531 509.613281 -113.800781 497.8125 -89.53125 C 486.007812 -65.257812 469.78125 -45.742188 449.125 -30.984375 C 428.46875 -16.234375 404.363281 -5.742188 376.8125 0.484375 C 349.257812 6.722656 319.742188 9.84375 288.265625 9.84375 C 244.972656 9.84375 204.140625 3.613281 165.765625 -8.84375 C 127.398438 -21.3125 93.460938 -37.054688 63.953125 -56.078125 L 84.609375 -99.375 C 114.128906 -80.351562 144.628906 -64.773438 176.109375 -52.640625 C 207.585938 -40.503906 244.644531 -34.4375 287.28125 -34.4375 C 312.863281 -34.4375 336.640625 -36.894531 358.609375 -41.8125 C 380.578125 -46.726562 399.597656 -54.925781 415.671875 -66.40625 C 431.742188 -77.882812 444.207031 -92.804688 453.0625 -111.171875 C 461.914062 -129.535156 466.34375 -152.164062 466.34375 -179.0625 C 466.34375 -207.914062 460.929688 -231.035156 450.109375 -248.421875 C 439.285156 -265.804688 424.851562 -279.742188 406.8125 -290.234375 C 388.78125 -300.722656 368.285156 -309.082031 345.328125 -315.3125 C 322.367188 -321.550781 299.082031 -327.617188 275.46875 -333.515625 C 251.863281 -339.421875 228.582031 -346.304688 205.625 -354.171875 C 182.664062 -362.046875 162.164062 -373.195312 144.125 -387.625 C 126.09375 -402.0625 111.664062 -420.59375 100.84375 -443.21875 C 90.019531 -465.851562 84.609375 -494.875 84.609375 -530.28125 C 84.609375 -559.132812 90.019531 -584.054688 100.84375 -605.046875 C 111.664062 -626.035156 126.421875 -643.414062 145.109375 -657.1875 C 163.804688 -670.96875 185.78125 -681.300781 211.03125 -688.1875 C 236.28125 -695.070312 263.335938 -698.515625 292.203125 -698.515625 C 335.492188 -698.515625 374.351562 -693.265625 408.78125 -682.765625 C 443.21875 -672.273438 474.210938 -659.488281 501.765625 -644.40625 L 484.046875 -602.09375 C 460.429688 -615.21875 432.71875 -627.1875 400.90625 -638 C 369.101562 -648.820312 332.867188 -654.234375 292.203125 -654.234375 C 269.898438 -654.234375 249.238281 -651.773438 230.21875 -646.859375 C 211.195312 -641.941406 194.472656 -634.234375 180.046875 -623.734375 C 165.617188 -613.242188 154.300781 -600.289062 146.09375 -584.875 C 137.894531 -569.46875 133.796875 -551.269531 133.796875 -530.28125 C 133.796875 -491.59375 143.140625 -462.570312 161.828125 -443.21875 C 180.523438 -423.875 204.140625 -408.953125 232.671875 -398.453125 C 261.203125 -387.960938 291.863281 -379.4375 324.65625 -372.875 C 357.457031 -366.3125 388.125 -356.472656 416.65625 -343.359375 C 445.1875 -330.242188 468.796875 -311.222656 487.484375 -286.296875 C 506.171875 -261.367188 515.515625 -225.625 515.515625 -179.0625 Z M 515.515625 -179.0625 "/></g></g></g><g fill="#2c8ffa" fill-opacity="1"><g transform="translate(532.684376, 990.134652)"><g><path d="M 459.453125 -38.375 C 433.210938 -23.28125 405.5 -11.46875 376.3125 -2.9375 C 347.132812 5.582031 317.785156 9.84375 288.265625 9.84375 C 256.785156 9.84375 227.429688 5.085938 200.203125 -4.421875 C 172.984375 -13.929688 149.207031 -28.851562 128.875 -49.1875 C 108.550781 -69.519531 92.648438 -95.921875 81.171875 -128.390625 C 69.691406 -160.859375 63.953125 -200.050781 63.953125 -245.96875 C 63.953125 -284.65625 68.378906 -319.578125 77.234375 -350.734375 C 86.085938 -381.890625 99.367188 -408.78125 117.078125 -431.40625 C 134.785156 -454.039062 156.921875 -471.425781 183.484375 -483.5625 C 210.046875 -495.695312 241.035156 -501.765625 276.453125 -501.765625 C 311.878906 -501.765625 342.050781 -495.53125 366.96875 -483.0625 C 391.894531 -470.601562 412.390625 -453.382812 428.453125 -431.40625 C 444.523438 -409.4375 456.171875 -383.363281 463.390625 -353.1875 C 470.609375 -323.019531 474.21875 -289.898438 474.21875 -253.828125 L 474.21875 -225.296875 L 113.140625 -225.296875 C 116.421875 -159.054688 133.800781 -110.6875 165.28125 -80.1875 C 196.769531 -49.6875 238.09375 -34.4375 289.25 -34.4375 C 313.519531 -34.4375 338.769531 -38.207031 365 -45.75 C 391.238281 -53.289062 417.148438 -64.601562 442.734375 -79.6875 Z M 276.453125 -457.484375 C 224.640625 -457.484375 185.453125 -440.59375 158.890625 -406.8125 C 132.328125 -373.039062 117.40625 -327.296875 114.125 -269.578125 L 425.015625 -269.578125 C 424.359375 -297.117188 421.242188 -322.367188 415.671875 -345.328125 C 410.097656 -368.285156 401.40625 -388.125 389.59375 -404.84375 C 377.789062 -421.570312 362.539062 -434.523438 343.84375 -443.703125 C 325.15625 -452.890625 302.691406 -457.484375 276.453125 -457.484375 Z M 276.453125 -457.484375 "/></g></g></g><g fill="#2c8ffa" fill-opacity="1"><g transform="translate(1013.693751, 990.134652)"><g><path d="M 83.625 -718.1875 L 132.8125 -718.1875 L 132.8125 -93.46875 C 132.8125 -54.113281 146.257812 -34.4375 173.15625 -34.4375 C 186.925781 -34.4375 202.664062 -38.695312 220.375 -47.21875 L 231.203125 -5.90625 C 210.210938 4.59375 189.550781 9.84375 169.21875 9.84375 C 144.945312 9.84375 124.613281 1.644531 108.21875 -14.75 C 91.820312 -31.15625 83.625 -56.082031 83.625 -89.53125 Z M 83.625 -718.1875 "/></g></g></g><g fill="#2c8ffa" fill-opacity="1"><g transform="translate(1197.630211, 990.134652)"><g><path d="M 83.625 -718.1875 L 132.8125 -718.1875 L 132.8125 -93.46875 C 132.8125 -54.113281 146.257812 -34.4375 173.15625 -34.4375 C 186.925781 -34.4375 202.664062 -38.695312 220.375 -47.21875 L 231.203125 -5.90625 C 210.210938 4.59375 189.550781 9.84375 169.21875 9.84375 C 144.945312 9.84375 124.613281 1.644531 108.21875 -14.75 C 91.820312 -31.15625 83.625 -56.082031 83.625 -89.53125 Z M 83.625 -718.1875 "/></g></g></g><g fill="#2c8ffa" fill-opacity="1"><g transform="translate(1361.889864, 990.134652)"><g><path d="M 459.453125 -38.375 C 433.210938 -23.28125 405.5 -11.46875 376.3125 -2.9375 C 347.132812 5.582031 317.785156 9.84375 288.265625 9.84375 C 256.785156 9.84375 227.429688 5.085938 200.203125 -4.421875 C 172.984375 -13.929688 149.207031 -28.851562 128.875 -49.1875 C 108.550781 -69.519531 92.648438 -95.921875 81.171875 -128.390625 C 69.691406 -160.859375 63.953125 -200.050781 63.953125 -245.96875 C 63.953125 -284.65625 68.378906 -319.578125 77.234375 -350.734375 C 86.085938 -381.890625 99.367188 -408.78125 117.078125 -431.40625 C 134.785156 -454.039062 156.921875 -471.425781 183.484375 -483.5625 C 210.046875 -495.695312 241.035156 -501.765625 276.453125 -501.765625 C 311.878906 -501.765625 342.050781 -495.53125 366.96875 -483.0625 C 391.894531 -470.601562 412.390625 -453.382812 428.453125 -431.40625 C 444.523438 -409.4375 456.171875 -383.363281 463.390625 -353.1875 C 470.609375 -323.019531 474.21875 -289.898438 474.21875 -253.828125 L 474.21875 -225.296875 L 113.140625 -225.296875 C 116.421875 -159.054688 133.800781 -110.6875 165.28125 -80.1875 C 196.769531 -49.6875 238.09375 -34.4375 289.25 -34.4375 C 313.519531 -34.4375 338.769531 -38.207031 365 -45.75 C 391.238281 -53.289062 417.148438 -64.601562 442.734375 -79.6875 Z M 276.453125 -457.484375 C 224.640625 -457.484375 185.453125 -440.59375 158.890625 -406.8125 C 132.328125 -373.039062 117.40625 -327.296875 114.125 -269.578125 L 425.015625 -269.578125 C 424.359375 -297.117188 421.242188 -322.367188 415.671875 -345.328125 C 410.097656 -368.285156 401.40625 -388.125 389.59375 -404.84375 C 377.789062 -421.570312 362.539062 -434.523438 343.84375 -443.703125 C 325.15625 -452.890625 302.691406 -457.484375 276.453125 -457.484375 Z M 276.453125 -457.484375 "/></g></g></g><g fill="#2c8ffa" fill-opacity="1"><g transform="translate(1842.899239, 990.134652)"><g><path d="M 304 -446.671875 C 286.289062 -453.878906 269.566406 -457.484375 253.828125 -457.484375 C 237.429688 -457.484375 221.851562 -453.710938 207.09375 -446.171875 C 192.34375 -438.628906 179.554688 -427.148438 168.734375 -411.734375 C 157.910156 -396.328125 149.21875 -376.976562 142.65625 -353.6875 C 136.09375 -330.40625 132.8125 -302.695312 132.8125 -270.5625 L 132.8125 0 L 83.625 0 L 83.625 -491.921875 L 132.8125 -491.921875 L 132.8125 -424.03125 C 145.9375 -450.269531 162.828125 -469.785156 183.484375 -482.578125 C 204.148438 -495.367188 227.597656 -501.765625 253.828125 -501.765625 C 274.816406 -501.765625 295.148438 -498.484375 314.828125 -491.921875 Z M 304 -446.671875 "/></g></g></g></g></g></g><g clip-path="url(#c8c404405a)"><g transform="matrix(1, 0, 0, 1, 2921, 113)"><g clip-path="url(#acfdaafca1)"><g fill="#2c8ffa" fill-opacity="1"><g transform="translate(0.292364, 887.048442)"><g><path d="M 73.78125 0 L 73.78125 -688.671875 L 442.734375 -688.671875 L 442.734375 -614.890625 L 157.421875 -614.890625 L 157.421875 -371.890625 L 427.96875 -371.890625 L 427.96875 -298.109375 L 157.421875 -298.109375 L 157.421875 0 Z M 73.78125 0 "/></g></g></g><g fill="#2c8ffa" fill-opacity="1"><g transform="translate(437.035913, 887.048442)"><g><path d="M 86.578125 -688.671875 L 178.078125 -688.671875 L 178.078125 -597.171875 L 86.578125 -597.171875 Z M 90.515625 -419.125 L 29.515625 -419.125 L 29.515625 -491.921875 L 125.9375 -491.921875 C 144.957031 -491.921875 157.742188 -489.296875 164.296875 -484.046875 C 170.859375 -478.804688 174.140625 -466.675781 174.140625 -447.65625 L 174.140625 0 L 90.515625 0 Z M 90.515625 -419.125 "/></g></g></g><g fill="#2c8ffa" fill-opacity="1"><g transform="translate(627.858129, 887.048442)"><g><path d="M 157.421875 0 L 73.78125 0 L 73.78125 -491.921875 L 157.421875 -491.921875 L 157.421875 -421.078125 C 194.148438 -474.867188 245.960938 -501.765625 312.859375 -501.765625 C 360.085938 -501.765625 397.472656 -487.660156 425.015625 -459.453125 C 452.566406 -431.253906 466.34375 -386 466.34375 -323.6875 L 466.34375 0 L 382.71875 0 L 382.71875 -322.703125 C 382.71875 -358.773438 374.023438 -385.335938 356.640625 -402.390625 C 339.265625 -419.441406 316.472656 -427.96875 288.265625 -427.96875 C 250.222656 -427.96875 218.90625 -412.878906 194.3125 -382.703125 C 169.71875 -352.535156 157.421875 -306.628906 157.421875 -244.984375 Z M 157.421875 0 "/></g></g></g><g fill="#2c8ffa" fill-opacity="1"><g transform="translate(1110.834967, 887.048442)"><g><path d="M 356.15625 0 C 352.875 -11.144531 350.578125 -22.617188 349.265625 -34.421875 C 347.953125 -46.234375 346.640625 -58.703125 345.328125 -71.828125 C 324.992188 -44.273438 300.5625 -23.773438 272.03125 -10.328125 C 243.5 3.117188 214.804688 9.84375 185.953125 9.84375 C 139.378906 9.84375 102.8125 -2.453125 76.25 -27.046875 C 49.6875 -51.648438 36.40625 -88.546875 36.40625 -137.734375 C 36.40625 -190.859375 53.945312 -231.359375 89.03125 -259.234375 C 124.125 -287.117188 175.453125 -301.0625 243.015625 -301.0625 C 258.097656 -301.0625 274.164062 -300.078125 291.21875 -298.109375 C 308.269531 -296.140625 326.304688 -293.515625 345.328125 -290.234375 L 345.328125 -335.484375 C 345.328125 -366.972656 335.816406 -390.257812 316.796875 -405.34375 C 297.773438 -420.425781 274.488281 -427.96875 246.9375 -427.96875 C 222.019531 -427.96875 200.707031 -422.226562 183 -410.75 C 165.289062 -399.269531 154.140625 -382.710938 149.546875 -361.078125 L 61.984375 -372.875 C 65.265625 -393.863281 72.476562 -412.226562 83.625 -427.96875 C 94.78125 -443.707031 108.554688 -457.148438 124.953125 -468.296875 C 141.347656 -479.453125 160.039062 -487.816406 181.03125 -493.390625 C 202.019531 -498.972656 224.316406 -501.765625 247.921875 -501.765625 C 272.847656 -501.765625 296.296875 -498.484375 318.265625 -491.921875 C 340.242188 -485.359375 359.429688 -475.351562 375.828125 -461.90625 C 392.222656 -448.46875 405.175781 -431.414062 414.6875 -410.75 C 424.195312 -390.09375 428.953125 -365.660156 428.953125 -337.453125 L 428.953125 -177.09375 C 428.953125 -143.644531 429.769531 -112.984375 431.40625 -85.109375 C 433.050781 -57.234375 435.84375 -28.863281 439.78125 0 Z M 345.328125 -214.484375 C 326.960938 -219.066406 310.070312 -222.34375 294.65625 -224.3125 C 279.25 -226.28125 262.035156 -227.265625 243.015625 -227.265625 C 199.722656 -227.265625 168.398438 -219.722656 149.046875 -204.640625 C 129.703125 -189.554688 120.03125 -167.253906 120.03125 -137.734375 C 120.03125 -112.160156 126.75 -93.46875 140.1875 -81.65625 C 153.632812 -69.851562 172.492188 -63.953125 196.765625 -63.953125 C 215.785156 -63.953125 234.148438 -67.394531 251.859375 -74.28125 C 269.566406 -81.164062 285.304688 -90.835938 299.078125 -103.296875 C 312.859375 -115.765625 324.007812 -130.6875 332.53125 -148.0625 C 341.0625 -165.445312 345.328125 -184.632812 345.328125 -205.625 Z M 345.328125 -214.484375 "/></g></g></g><g fill="#2c8ffa" fill-opacity="1"><g transform="translate(1556.431722, 887.048442)"><g><path d="M 157.421875 0 L 73.78125 0 L 73.78125 -491.921875 L 157.421875 -491.921875 L 157.421875 -421.078125 C 194.148438 -474.867188 245.960938 -501.765625 312.859375 -501.765625 C 360.085938 -501.765625 397.472656 -487.660156 425.015625 -459.453125 C 452.566406 -431.253906 466.34375 -386 466.34375 -323.6875 L 466.34375 0 L 382.71875 0 L 382.71875 -322.703125 C 382.71875 -358.773438 374.023438 -385.335938 356.640625 -402.390625 C 339.265625 -419.441406 316.472656 -427.96875 288.265625 -427.96875 C 250.222656 -427.96875 218.90625 -412.878906 194.3125 -382.703125 C 169.71875 -352.535156 157.421875 -306.628906 157.421875 -244.984375 Z M 157.421875 0 "/></g></g></g><g fill="#2c8ffa" fill-opacity="1"><g transform="translate(2039.408561, 887.048442)"><g><path d="M 484.046875 -117.078125 C 467.648438 -77.722656 442.5625 -46.726562 408.78125 -24.09375 C 375.007812 -1.46875 332.539062 9.84375 281.375 9.84375 C 243.988281 9.84375 211.191406 3.773438 182.984375 -8.359375 C 154.785156 -20.492188 131.335938 -37.875 112.640625 -60.5 C 93.953125 -83.132812 79.851562 -110.191406 70.34375 -141.671875 C 60.832031 -173.148438 56.078125 -207.914062 56.078125 -245.96875 C 56.078125 -284.65625 60.832031 -319.578125 70.34375 -350.734375 C 79.851562 -381.890625 93.953125 -408.78125 112.640625 -431.40625 C 131.335938 -454.039062 154.785156 -471.425781 182.984375 -483.5625 C 211.191406 -495.695312 243.988281 -501.765625 281.375 -501.765625 C 329.257812 -501.765625 369.597656 -491.925781 402.390625 -472.25 C 435.179688 -452.570312 460.109375 -425.351562 477.171875 -390.59375 L 405.34375 -346.3125 C 380.414062 -400.75 339.09375 -427.96875 281.375 -427.96875 C 233.5 -427.96875 197.914062 -411.570312 174.625 -378.78125 C 151.34375 -345.988281 139.703125 -301.71875 139.703125 -245.96875 C 139.703125 -190.207031 151.34375 -145.929688 174.625 -113.140625 C 197.914062 -80.347656 233.5 -63.953125 281.375 -63.953125 C 310.894531 -63.953125 336.476562 -71.164062 358.125 -85.59375 C 379.769531 -100.019531 396.164062 -121.664062 407.3125 -150.53125 Z M 484.046875 -117.078125 "/></g></g></g><g fill="#2c8ffa" fill-opacity="1"><g transform="translate(2484.02013, 887.048442)"><g><path d="M 477.171875 -38.375 C 447.648438 -21.976562 418.128906 -9.84375 388.609375 -1.96875 C 359.097656 5.90625 330.570312 9.84375 303.03125 9.84375 C 266.289062 9.84375 232.835938 4.101562 202.671875 -7.375 C 172.503906 -18.851562 146.597656 -35.578125 124.953125 -57.546875 C 103.304688 -79.523438 86.414062 -106.421875 74.28125 -138.234375 C 62.144531 -170.046875 56.078125 -205.957031 56.078125 -245.96875 C 56.078125 -284.65625 60.832031 -319.578125 70.34375 -350.734375 C 79.851562 -381.890625 93.953125 -408.78125 112.640625 -431.40625 C 131.335938 -454.039062 154.785156 -471.425781 182.984375 -483.5625 C 211.191406 -495.695312 243.988281 -501.765625 281.375 -501.765625 C 318.101562 -501.765625 349.585938 -495.695312 375.828125 -483.5625 C 402.066406 -471.425781 423.710938 -454.535156 440.765625 -432.890625 C 457.816406 -411.242188 470.441406 -385.660156 478.640625 -356.140625 C 486.835938 -326.628906 490.9375 -294.164062 490.9375 -258.75 L 490.9375 -212.515625 L 141.671875 -212.515625 C 146.921875 -163.316406 163.484375 -126.253906 191.359375 -101.328125 C 219.234375 -76.410156 256.78125 -63.953125 304 -63.953125 C 326.300781 -63.953125 349.75 -67.394531 374.34375 -74.28125 C 398.945312 -81.164062 424.035156 -91.820312 449.609375 -106.25 Z M 281.375 -427.96875 C 239.394531 -427.96875 206.925781 -415.175781 183.96875 -389.59375 C 161.019531 -364.019531 146.921875 -329.585938 141.671875 -286.296875 L 406.328125 -286.296875 C 404.359375 -329.585938 393.367188 -364.019531 373.359375 -389.59375 C 353.359375 -415.175781 322.695312 -427.96875 281.375 -427.96875 Z M 281.375 -427.96875 "/></g></g></g></g></g></g></g></g></svg>